<?xml version="1.0" encoding="UTF-8" standalone="no"?>
<!-- Svg Vector Icons : http://www.onlinewebfonts.com/icon -->

<svg
   xmlns:dc="http://purl.org/dc/elements/1.1/"
   xmlns:cc="http://creativecommons.org/ns#"
   xmlns:rdf="http://www.w3.org/1999/02/22-rdf-syntax-ns#"
   xmlns:svg="http://www.w3.org/2000/svg"
   xmlns="http://www.w3.org/2000/svg"
   xmlns:sodipodi="http://sodipodi.sourceforge.net/DTD/sodipodi-0.dtd"
   xmlns:inkscape="http://www.inkscape.org/namespaces/inkscape"
   version="1.1"
   x="0px"
   y="0px"
   viewBox="0 0 1000 1000"
   enable-background="new 0 0 1000 1000"
   xml:space="preserve"
   id="svg10"
   sodipodi:docname="airport_target.svg"
   inkscape:version="0.92.3 (2405546, 2018-03-11)"><defs
   id="defs14" /><sodipodi:namedview
   pagecolor="#ffffff"
   bordercolor="#666666"
   borderopacity="1"
   objecttolerance="10"
   gridtolerance="10"
   guidetolerance="10"
   inkscape:pageopacity="0"
   inkscape:pageshadow="2"
   inkscape:window-width="1245"
   inkscape:window-height="969"
   id="namedview12"
   showgrid="false"
   inkscape:zoom="0.744875"
   inkscape:cx="687.02513"
   inkscape:cy="500"
   inkscape:window-x="0"
   inkscape:window-y="27"
   inkscape:window-maximized="1"
   inkscape:current-layer="svg10" />
<metadata
   id="metadata2"> Svg Vector Icons : http://www.onlinewebfonts.com/icon <rdf:RDF><cc:Work
     rdf:about=""><dc:format>image/svg+xml</dc:format><dc:type
       rdf:resource="http://purl.org/dc/dcmitype/StillImage" /></cc:Work></rdf:RDF></metadata>
<g
   id="g8"><g
     transform="translate(0.000000,511.000000) scale(0.100000,-0.100000)"
     id="g6"><path
       d="M4751.9,5002.6c-1549.5-89.8-2917.5-1147.5-3405.3-2626.7C975.8,1246,1131.9,53.6,1795.4-1045.1c386.4-642,1059.7-1434.3,3034.6-3573.2c85.9-93.7,162-169.8,169.8-171.7c29.3-3.9,1869.5,2170,2486.2,2937C8247-904.6,8651-147.4,8803.2,613.7c58.6,286.9,62.4,835.2,9.8,1141.6c-105.4,622.5-333.7,1178.7-686.9,1670.5c-138.6,193.2-464.5,536.7-669.4,708.4C6715.1,4752.8,5749.1,5063,4751.9,5002.6z M7634.3,2580.8c82-62.4,123-150.3,103.4-224.4c-42.9-171.7-415.7-380.5-3545.9-1974.9c-384.4-195.2-704.5-351.3-712.3-347.4c-33.2,17.6-1131.9,685-1172.8,712.3c-42.9,27.3-41,31.2,121,123l165.9,93.7l429.3-124.9c238.1-70.2,441-126.8,452.8-126.8c25.4,0,1090.9,552.3,1090.9,565.9c0,5.8-277.1,199.1-614.7,429.3c-337.6,230.3-614.7,423.5-614.7,429.3c0,5.8,101.5,60.5,224.4,122.9l226.4,111.2l899.6-243.9c495.7-134.6,911.3-243.9,923.1-243.9c13.7,0,333.7,152.2,714.2,339.6c380.5,187.3,739.6,355.2,798.2,372.7c58.6,17.6,117.1,37.1,126.9,41c11.7,3.9,85.9,3.9,167.8,1.9C7544.5,2633.5,7575.7,2625.7,7634.3,2580.8z M6406.8,806.9c208.8-366.9,201-341.5,140.5-552.3l-31.2-105.4l-501.6,234.2c-275.1,128.8-550.3,255.6-608.8,283l-107.3,48.8l439.1,220.5c242,122.9,446.9,220.5,456.7,216.6C6203.9,1150.3,6299.4,994.2,6406.8,806.9z"
       id="path4" /></g></g>
<path
   style="opacity:1;fill:#008080;fill-opacity:1;stroke:#000000;stroke-width:0;stroke-miterlimit:4;stroke-dasharray:none;stroke-opacity:1"
   d="M 493.2738,982.85425 C 490.77847,979.94951 471.8131,959.25812 451.12856,936.87338 316.64044,791.33087 245.15282,708.77014 205.26506,652.92673 155.06028,582.63936 126.81296,512.86675 118.134,437.70767 c -2.77571,-24.03744 -2.04554,-76.17688 1.36305,-97.33177 7.32368,-45.45332 16.85774,-75.8199 36.2491,-115.45561 C 193.51538,147.72041 256.86469,85.311197 335.69102,47.645784 464.12,-13.721168 619.85915,2.2668577 732.98444,88.43153 c 16.4267,12.51181 46.23521,41.28118 63.52278,61.30836 46.15636,53.4709 79.7872,133.3732 86.44115,205.37243 1.89197,20.47213 0.69548,71.02454 -2.06619,87.29825 -9.31575,54.89474 -33.61371,111.26461 -75.25002,174.57572 -27.64477,42.03592 -50.23752,71.10625 -124.11829,159.70443 -99.06093,118.79435 -178.78165,211.44487 -181.93674,211.44487 -0.97149,0 -3.80798,-2.3766 -6.30333,-5.28134 z M 430.85301,467.41436 C 557.64324,403.34553 664.08856,348.13735 708.908,323.20035 c 57.43648,-31.95699 68.91817,-41.85454 65.08166,-56.10226 -1.82483,-6.77692 -8.52313,-14.39977 -15.39738,-17.52268 -4.16207,-1.89079 -8.78588,-2.45146 -20.40474,-2.47427 -12.76825,-0.0251 -16.44548,0.48356 -24.49889,3.38859 -10.73572,3.87259 -41.02581,17.97887 -92.04362,42.86529 -19.19785,9.3647 -40.69286,19.69052 -47.76669,22.94629 l -12.86152,5.9196 -30.76997,-8.09667 c -16.92348,-4.45317 -57.423,-15.32047 -89.99894,-24.14956 -32.57593,-8.82908 -60.11594,-16.05288 -61.2,-16.05288 -2.40161,0 -41.3011,19.56932 -43.79011,22.02967 -2.35376,2.32666 -2.04658,2.55914 58.16102,44.01948 27.32002,18.81318 52.53169,36.22438 56.02593,38.69155 l 6.35314,4.48576 -5.68189,3.23277 c -8.39318,4.77539 -74.78888,39.34393 -89.75098,46.72832 l -12.91619,6.37467 -38.09908,-10.97236 c -20.9545,-6.0348 -40.83293,-11.80188 -44.1743,-12.81572 l -6.07523,-1.84339 -15.40489,8.93525 c -8.53464,4.9503 -15.40489,9.80968 -15.40489,10.896 0,1.07842 6.34335,5.84722 14.09633,10.59733 66.42834,40.69948 104.40221,63.23691 106.54945,63.23691 1.40407,0 38.26663,-18.04665 81.91679,-40.10368 z m 225.04001,16.68109 c 4.62329,-16.66603 3.74279,-21.13021 -8.52579,-43.22588 -17.44251,-31.4139 -26.77951,-45.51605 -29.80306,-45.01311 -2.68038,0.44586 -84.99605,41.25201 -86.92314,43.0902 -0.58081,0.55402 26.30289,13.75167 59.74156,29.32811 33.43869,15.57643 61.19207,27.90874 61.67422,27.40512 0.48213,-0.50361 2.20842,-5.71661 3.83621,-11.58444 z"
   id="path4524"
   inkscape:connector-curvature="0" /></svg>