<?xml version="1.0" encoding="UTF-8" standalone="no"?>
<!-- Svg Vector Icons : http://www.onlinewebfonts.com/icon -->

<svg
   xmlns:dc="http://purl.org/dc/elements/1.1/"
   xmlns:cc="http://creativecommons.org/ns#"
   xmlns:rdf="http://www.w3.org/1999/02/22-rdf-syntax-ns#"
   xmlns:svg="http://www.w3.org/2000/svg"
   xmlns="http://www.w3.org/2000/svg"
   xmlns:sodipodi="http://sodipodi.sourceforge.net/DTD/sodipodi-0.dtd"
   xmlns:inkscape="http://www.inkscape.org/namespaces/inkscape"
   version="1.1"
   x="0px"
   y="0px"
   viewBox="0 0 1000 1000"
   enable-background="new 0 0 1000 1000"
   xml:space="preserve"
   id="svg16"
   sodipodi:docname="ComplexTrip.svg"
   inkscape:version="0.92.3 (2405546, 2018-03-11)"><defs
   id="defs20" /><sodipodi:namedview
   pagecolor="#ffffff"
   bordercolor="#666666"
   borderopacity="1"
   objecttolerance="10"
   gridtolerance="10"
   guidetolerance="10"
   inkscape:pageopacity="0"
   inkscape:pageshadow="2"
   inkscape:window-width="1245"
   inkscape:window-height="969"
   id="namedview18"
   showgrid="false"
   inkscape:zoom="0.29079758"
   inkscape:cx="58.036685"
   inkscape:cy="829.02657"
   inkscape:window-x="0"
   inkscape:window-y="27"
   inkscape:window-maximized="1"
   inkscape:current-layer="svg16" />
<metadata
   id="metadata2"> Svg Vector Icons : http://www.onlinewebfonts.com/icon <rdf:RDF><cc:Work
     rdf:about=""><dc:format>image/svg+xml</dc:format><dc:type
       rdf:resource="http://purl.org/dc/dcmitype/StillImage" /></cc:Work></rdf:RDF></metadata>

<g
   id="g880"
   style="fill:#008080"><path
     style="stroke-width:0.1;fill:#008080"
     inkscape:connector-curvature="0"
     id="path6-6"
     d="m 684.48,390.56001 c -4.97,7.75 -9.14,14.7 -9.14,15.5 0,0.8 56.43,30 125.18,64.97 C 869.27,506 925.5,535.21 925.1,536 c -0.2,1.19 -91,72.13 -168.49,131.93 l -11.13,8.54 -84.05,-74.51 -84.05,-74.5 -5.56,5.37 c -3.18,2.98 -5.76,6.56 -5.76,7.55 0,1.19 36.17,34.38 80.47,73.72 51.07,45.3 79.48,71.93 78.09,72.72 -5.96,3.18 -244.4,97.56001 -244.79,96.96001 C 479.43,783.38001 413.27,700.93 332.8,600.58 252.13,500.24001 186.76,417.58001 187.16,416.98001 c 0.6,-0.6 26.03,-1.39 56.63,-1.99 l 55.44,-1.19 -10.93,-17.49 -10.73,-17.68 -45.9,0.2 c -25.43,0 -54.05,0.79 -63.98,1.39 l -17.88,1.39 -73.940004,50.47 c -76.89,52.46 -79.47,54.84 -76.49,66.17 1.99,8.14999 331.820004,491.18 337.390004,493.96 7.55,3.97 15.7,1.19 24.04,-8.54 4.17,-4.57 36.56,-44.31 72.13,-87.82 l 64.58,-79.48 130.14,-51.86 130.15,-51.86 L 858.14,634.75 c 55.24,-42.72 104.51,-81.07 109.48,-85.24 10.33,-8.74 13.12,-15.7 9.54,-24.04 -2.58,-6.36 -9.74,-10.13 -183,-97.95999 l -100.74,-51.06 z M 306.96,598.59 c 79.68,99.15 148.23,184.39001 152.2,189.55001 l 7.55,9.34 -59.81,73.12 c -32.78,40.34 -60.2,73.52 -61,73.72 -0.99,0.4 -285.130004,-415.47001 -300.820004,-440.31 l -3.18,-5.16 58.810004,-40.33 c 32.39,-22.06 59.61,-40.14 60.21,-40.14 0.79,-0.01 66.56,81.06 146.04,180.20999 z" /><g
     transform="translate(68,-176)"
     id="g848"
     style="fill:#008080"><path
       d="m 718.44,264.91 c -18.22,4.11 -37.62,13.91 -76.22,38.79 -78.96,50.35 -157.53,99.53 -159.29,99.53 -0.98,0 -58.98,-19.99 -128.92,-44.28 -69.95,-24.49 -127.94,-44.48 -129.12,-44.48 -1.76,0 -60.35,36.25 -64.27,39.77 -0.78,0.78 37.23,35.46 84.45,77 47.22,41.54 86.99,77 88.37,78.57 1.96,2.35 -9.99,10.97 -75.24,55.06 L 180.61,617 117.52,593.29 54.63,569.78 45.62,576.05 C 12.5,599.56 7.8,603.67 10.74,605.83 c 1.57,1.17 40.17,31.15 85.62,66.81 45.65,35.46 84.45,64.66 86.21,64.46 1.76,0 39.38,-23.71 83.47,-52.71 371.48,-243.73 469.45,-310.35 498.25,-338.56 19.01,-18.61 24.49,-37.62 15.87,-54.86 -11.76,-23.32 -33.31,-32.53 -61.72,-26.06 z"
       id="path4"
       inkscape:connector-curvature="0"
       style="stroke-width:0.1;fill:#008080" /><path
       d="m 514.48,566.45 c -33.7,21.75 -60.93,40.17 -60.74,40.95 0.39,1.76 168.11,102.08 168.89,101.1 0.2,-0.39 3.13,-12.74 6.27,-27.43 l 5.88,-27.04 -27.82,-63.09 c -15.28,-34.68 -28.61,-63.29 -29.58,-63.48 -0.99,-0.39 -29.2,17.24 -62.9,38.99 z"
       id="path8"
       inkscape:connector-curvature="0"
       style="stroke-width:0.1;fill:#008080" /></g><path
     style="stroke-width:0.03287349;fill:#008080"
     inkscape:connector-curvature="0"
     id="path4-3"
     d="m 306.96,598.59 c -15.15468,2.5477 -27.69592,9.21116 -38.79729,20.50978 -13.19542,13.45512 -19.92134,29.78667 -19.92134,48.59688 0,20.57552 7.44585,37.82095 25.79912,59.57006 6.9889,8.23152 30.30607,34.29362 38.79729,43.24179 l 5.42084,5.74957 10.19078,-11.9528 c 16.98245,-19.92134 35.20751,-41.86768 39.90842,-48.13994 9.47086,-12.60699 16.45976,-26.5848 18.61626,-37.36073 0.58844,-2.74165 1.04538,-8.10002 1.04538,-11.8213 0,-18.81022 -7.31435,-35.85841 -21.09821,-49.25107 -10.51623,-10.19078 -22.53478,-16.45976 -36.18714,-18.81021 -5.81203,-1.04867 -18.61626,-1.18016 -23.77411,-0.33203 z m 18.41902,36.83804 c 12.73519,2.74494 23.38292,13.19542 26.38755,25.93061 2.74494,11.6931 -0.65418,23.25471 -9.47085,32.07138 -10.51623,10.51623 -25.60516,13.12967 -38.86304,6.72592 -21.55515,-10.31899 -26.38756,-38.4061 -9.5366,-55.26034 8.55697,-8.5504 19.78984,-11.94952 31.48294,-9.46757 z" /><path
     style="stroke-width:0.03287349;fill:#008080"
     inkscape:connector-curvature="0"
     id="path4-3-7"
     d="m 855.41177,353.79418 c -15.15468,2.5477 -27.69592,9.21116 -38.79729,20.50978 -13.19542,13.45512 -19.92134,29.78667 -19.92134,48.59688 0,20.57552 7.44585,37.82095 25.79912,59.57006 6.9889,8.23152 30.30607,34.29362 38.79729,43.24179 l 5.42084,5.74957 10.19078,-11.9528 c 16.98245,-19.92134 35.20751,-41.86768 39.90842,-48.13994 9.47086,-12.60699 16.45976,-26.5848 18.61626,-37.36073 0.58844,-2.74165 1.04538,-8.10002 1.04538,-11.8213 0,-18.81022 -7.31435,-35.85841 -21.09821,-49.25107 -10.51623,-10.19078 -22.53478,-16.45976 -36.18714,-18.81021 -5.81203,-1.04867 -18.61626,-1.18016 -23.77411,-0.33203 z m 18.41902,36.83804 c 12.73519,2.74494 23.38292,13.19542 26.38755,25.93061 2.74494,11.6931 -0.65418,23.25471 -9.47085,32.07138 -10.51623,10.51623 -25.60516,13.12967 -38.86304,6.72592 -21.55515,-10.31899 -26.38756,-38.4061 -9.5366,-55.26034 8.55697,-8.5504 19.78984,-11.94952 31.48294,-9.46757 z" /><path
     style="stroke-width:0.03287349;fill:#008080"
     inkscape:connector-curvature="0"
     id="path4-3-5"
     d="m 556.23459,557.24563 c -15.15468,2.5477 -27.69592,9.21116 -38.79729,20.50978 -13.19542,13.45512 -19.92134,29.78667 -19.92134,48.59688 0,20.57552 7.44585,37.82095 25.79912,59.57006 6.9889,8.23152 30.30607,34.29362 38.79729,43.24179 l 5.42084,5.74957 10.19078,-11.9528 c 16.98245,-19.92134 35.20751,-41.86768 39.90842,-48.13994 9.47086,-12.60699 16.45976,-26.5848 18.61626,-37.36073 0.58844,-2.74165 1.04538,-8.10002 1.04538,-11.8213 0,-18.81022 -7.31435,-35.85841 -21.09821,-49.25107 -10.51623,-10.19078 -22.53478,-16.45976 -36.18714,-18.81021 -5.81203,-1.04867 -18.61626,-1.18016 -23.77411,-0.33203 z m 18.41902,36.83804 c 12.73519,2.74494 23.38292,13.19542 26.38755,25.93061 2.74494,11.6931 -0.65418,23.25471 -9.47085,32.07138 -10.51623,10.51623 -25.60516,13.12967 -38.86304,6.72592 -21.55515,-10.31899 -26.38756,-38.4061 -9.5366,-55.26034 8.55697,-8.5504 19.78984,-11.94952 31.48294,-9.46757 z" /></g></svg>