<?xml version="1.0" encoding="UTF-8" standalone="no"?>
<!-- Svg Vector Icons : http://www.onlinewebfonts.com/icon -->

<svg
   xmlns:dc="http://purl.org/dc/elements/1.1/"
   xmlns:cc="http://creativecommons.org/ns#"
   xmlns:rdf="http://www.w3.org/1999/02/22-rdf-syntax-ns#"
   xmlns:svg="http://www.w3.org/2000/svg"
   xmlns="http://www.w3.org/2000/svg"
   xmlns:sodipodi="http://sodipodi.sourceforge.net/DTD/sodipodi-0.dtd"
   xmlns:inkscape="http://www.inkscape.org/namespaces/inkscape"
   version="1.1"
   x="0px"
   y="0px"
   viewBox="0 0 1000 1000"
   enable-background="new 0 0 1000 1000"
   xml:space="preserve"
   id="svg16"
   sodipodi:docname="RoundTrip.svg"
   inkscape:version="0.92.3 (2405546, 2018-03-11)"><defs
   id="defs20" /><sodipodi:namedview
   pagecolor="#ffffff"
   bordercolor="#666666"
   borderopacity="1"
   objecttolerance="10"
   gridtolerance="10"
   guidetolerance="10"
   inkscape:pageopacity="0"
   inkscape:pageshadow="2"
   inkscape:window-width="1245"
   inkscape:window-height="969"
   id="namedview18"
   showgrid="false"
   inkscape:zoom="0.29079758"
   inkscape:cx="78.722316"
   inkscape:cy="102.83066"
   inkscape:window-x="0"
   inkscape:window-y="27"
   inkscape:window-maximized="1"
   inkscape:current-layer="svg16" />
<metadata
   id="metadata2"> Svg Vector Icons : http://www.onlinewebfonts.com/icon <rdf:RDF><cc:Work
     rdf:about=""><dc:format>image/svg+xml</dc:format><dc:type
       rdf:resource="http://purl.org/dc/dcmitype/StillImage" /></cc:Work></rdf:RDF></metadata>
<g
   id="g14"
   style="fill:#008080"><g
     transform="translate(0.000000,511.000000) scale(0.100000,-0.100000)"
     id="g12"
     style="fill:#008080"><path
       d="M7184.4,2460.9c-182.2-41.1-376.2-139.1-762.2-387.9c-789.6-503.5-1575.3-995.3-1592.9-995.3c-9.8,0-589.8,199.9-1289.2,442.8c-699.5,244.9-1279.4,444.8-1291.2,444.8c-17.6,0-603.5-362.5-642.7-397.7c-7.8-7.8,372.3-354.6,844.5-770c472.2-415.4,869.9-770,883.7-785.7c19.6-23.5-99.9-109.7-752.4-550.6L1806.1-1060l-630.9,237.1L546.3-587.8l-90.1-62.7C125-885.6,78-926.7,107.4-948.3c15.7-11.7,401.7-311.5,856.2-668.1c456.5-354.6,844.5-646.6,862.1-644.6c17.6,0,393.8,237.1,834.7,527.1C6375.2,703.4,7354.9,1369.6,7642.9,1651.7c190.1,186.1,244.9,376.2,158.7,548.6C7684,2433.5,7468.5,2525.6,7184.4,2460.9z"
       id="path4"
       style="fill:#008080" /><path
       d="M7411.7,789.6c-15.7-5.9-197.9-160.7-405.6-342.9c-384-335-417.3-378.1-384-474.2c13.7-43.1,303.7-307.6,677.9-621.1c133.2-113.6,211.6-125.4,301.7-49c52.9,45.1,54.9,58.8,64.7,248.8l9.8,201.8l1103.1,139.1C9384.7-33.3,9874.5,31.4,9866.7,33.3c-7.8,3.9-478.1,62.7-1044.3,133.2c-566.2,68.6-1058,131.3-1091.3,137.2l-64.6,11.7V482c0,105.8-9.8,186.1-27.4,221.4C7597.8,781.8,7494,821,7411.7,789.6z"
       id="path6"
       style="fill:#008080" /><path
       d="M5144.8-554.5c-337-217.5-609.3-401.7-607.4-409.5c3.9-17.6,1681.1-1020.8,1688.9-1011c2,3.9,31.3,127.4,62.7,274.3l58.8,270.4l-278.2,630.9c-152.8,346.8-286.1,632.9-295.8,634.8C5763.9-160.7,5481.8-337,5144.8-554.5z"
       id="path8"
       style="fill:#008080" /><path
       d="M8906.6-497.7c-52.9-45.1-54.9-56.8-60.7-244.9c-5.9-162.6-13.7-197.9-39.2-205.7c-19.6-3.9-517.3-68.6-1109-141.1c-591.7-72.5-1067.8-135.2-1058-139.1c9.8-2,480-62.7,1046.3-133.2c566.3-68.6,1058-131.3,1093.3-137.2l62.7-11.8V-1685c0-156.7,3.9-178.3,49-231.2c56.8-68.6,137.2-92.1,207.7-64.7c45.1,17.6,756.3,629,785.7,676c7.8,11.8,15.7,50.9,15.7,84.3c0,82.3-25.5,107.8-448.7,474.1c-309.6,268.4-348.8,295.9-415.4,295.9C8985-450.6,8943.9-466.3,8906.6-497.7z"
       id="path10"
       style="fill:#008080" /></g></g>
</svg>