<?xml version="1.0" encoding="UTF-8" standalone="no"?>
<!-- Svg Vector Icons : http://www.onlinewebfonts.com/icon -->

<svg
   xmlns:dc="http://purl.org/dc/elements/1.1/"
   xmlns:cc="http://creativecommons.org/ns#"
   xmlns:rdf="http://www.w3.org/1999/02/22-rdf-syntax-ns#"
   xmlns:svg="http://www.w3.org/2000/svg"
   xmlns="http://www.w3.org/2000/svg"
   xmlns:sodipodi="http://sodipodi.sourceforge.net/DTD/sodipodi-0.dtd"
   xmlns:inkscape="http://www.inkscape.org/namespaces/inkscape"
   version="1.1"
   x="0px"
   y="0px"
   viewBox="0 0 1000 1000"
   enable-background="new 0 0 1000 1000"
   xml:space="preserve"
   id="svg12"
   sodipodi:docname="target.svg"
   inkscape:version="0.92.3 (2405546, 2018-03-11)"><defs
   id="defs16" /><sodipodi:namedview
   pagecolor="#ffffff"
   bordercolor="#666666"
   borderopacity="1"
   objecttolerance="10"
   gridtolerance="10"
   guidetolerance="10"
   inkscape:pageopacity="0"
   inkscape:pageshadow="2"
   inkscape:window-width="1245"
   inkscape:window-height="969"
   id="namedview14"
   showgrid="false"
   inkscape:zoom="0.82249976"
   inkscape:cx="103.84677"
   inkscape:cy="500"
   inkscape:window-x="0"
   inkscape:window-y="27"
   inkscape:window-maximized="1"
   inkscape:current-layer="svg12" />
<metadata
   id="metadata2"> Svg Vector Icons : http://www.onlinewebfonts.com/icon <rdf:RDF><cc:Work
     rdf:about=""><dc:format>image/svg+xml</dc:format><dc:type
       rdf:resource="http://purl.org/dc/dcmitype/StillImage" /></cc:Work></rdf:RDF></metadata>
<g
   id="g10"
   style="fill:#008080"><g
     transform="translate(0.000000,511.000000) scale(0.100000,-0.100000)"
     id="g8"
     style="fill:#008080"><path
       d="M4694.6,4999.5c-1272-95.6-2444.4-848.6-3064.8-1966.5c-308.2-554.1-456.5-1102.2-476-1759.7C1134.2,621.7,1245.4,54,1506.9-515.6c314.1-684.7,692.6-1199.8,1785-2424.9c598.9-669.2,1671.9-1839.7,1697.3-1849.4c39-13.7,2417.1,2822.9,2795.6,3332.1C8446.1-566.3,8781.6,214,8844.1,1010c17.6,208.7-19.5,655.5-78,932.5c-236,1139.3-977.4,2110.8-2017.2,2645.4C6128.4,4905.8,5402.7,5052.2,4694.6,4999.5z M5186.2,3116.9c0-444.8,5.8-577.5,25.4-583.3c11.7-3.9,83.9-21.5,158-39c279-64.4,573.5-255.6,764.7-495.5c109.3-138.5,232.2-386.3,267.3-540.4l27.3-117l577.4-5.9l579.4-3.9v-214.6V902.7h-575.5h-575.5L6423,850c-37.1-163.9-56.6-224.3-122.9-366.8C6107,73.6,5734.4-223,5309.1-306.9l-122.9-25.4v-591.1v-593.1h-204.8h-204.8v591.1v589.2L4645.8-301c-74.1,19.5-204.8,70.2-294.6,113.2c-351.2,169.7-677,585.3-753,963.7l-25.4,117.1l-587.2,5.8l-589.2,3.9v214.6v214.6h591.1h589.2l33.2,138.5c117.1,487.7,528.7,895.4,1032,1026.2l134.6,33.2V3111v581.4h204.8h204.8V3116.9z"
       id="path4"
       style="fill:#008080" /><path
       d="M4618.5,2065.4c-165.8-66.3-236.1-117.1-374.6-263.4c-124.9-134.6-216.5-286.8-240-405.8l-11.7-64.4H4160h167.8v-214.6V902.7h-177.5h-177.5l13.7-62.4c27.3-140.4,167.8-388.2,286.8-505.3c111.2-109.3,321.9-234.1,450.6-263.4l52.7-11.7v187.3v187.3h204.8h204.8V247.2V57.9l74.1,11.7c122.9,21.5,378.5,160,487.7,267.3c107.3,105.4,245.8,360.9,269.2,493.6l11.7,72.2h-187.3h-187.3v214.6v214.6h185.3c101.5,0,185.3,3.9,185.3,5.9c0,3.9-17.6,58.5-39,119c-97.5,282.9-333.6,518.9-614.5,616.5c-187.3,64.4-185.3,66.3-185.3-136.6V1761h-204.8h-204.8v175.6c0,126.8-5.8,175.6-23.4,175.6C4739.4,2112.2,4679,2090.7,4618.5,2065.4z"
       id="path6"
       style="fill:#008080" /></g></g>
</svg>