<?xml version="1.0" encoding="UTF-8" standalone="no"?>
<!-- Svg Vector Icons : http://www.onlinewebfonts.com/icon -->

<svg
   xmlns:dc="http://purl.org/dc/elements/1.1/"
   xmlns:cc="http://creativecommons.org/ns#"
   xmlns:rdf="http://www.w3.org/1999/02/22-rdf-syntax-ns#"
   xmlns:svg="http://www.w3.org/2000/svg"
   xmlns="http://www.w3.org/2000/svg"
   xmlns:sodipodi="http://sodipodi.sourceforge.net/DTD/sodipodi-0.dtd"
   xmlns:inkscape="http://www.inkscape.org/namespaces/inkscape"
   version="1.1"
   x="0px"
   y="0px"
   viewBox="0 0 1000 1000"
   enable-background="new 0 0 1000 1000"
   xml:space="preserve"
   id="svg18"
   sodipodi:docname="wait.svg"
   inkscape:version="0.92.3 (2405546, 2018-03-11)"><defs
   id="defs22" /><sodipodi:namedview
   pagecolor="#ffffff"
   bordercolor="#666666"
   borderopacity="1"
   objecttolerance="10"
   gridtolerance="10"
   guidetolerance="10"
   inkscape:pageopacity="0"
   inkscape:pageshadow="2"
   inkscape:window-width="1280"
   inkscape:window-height="996"
   id="namedview20"
   showgrid="false"
   inkscape:zoom="0.21567644"
   inkscape:cx="629.13661"
   inkscape:cy="821.23742"
   inkscape:window-x="0"
   inkscape:window-y="0"
   inkscape:window-maximized="1"
   inkscape:current-layer="svg18" />
<metadata
   id="metadata2"> Svg Vector Icons : http://www.onlinewebfonts.com/icon <rdf:RDF><cc:Work
     rdf:about=""><dc:format>image/svg+xml</dc:format><dc:type
       rdf:resource="http://purl.org/dc/dcmitype/StillImage" /></cc:Work></rdf:RDF></metadata>
<g
   id="g16"><g
     transform="translate(0.000000,511.000000) scale(0.100000,-0.100000)"
     id="g14"><path
       d="M7391.6,4964.7c-361.9-90.5-726.4-321.7-947.6-600.7c-158.3-196.1-301.6-492.6-351.9-721.4c-65.4-296.6-45.2-691.2,52.8-970.2c178.5-507.7,588.2-919.9,1083.3-1090.8c628.4-218.7,1296.9-77.9,1784.6,374.5c208.6,191,374.5,447.4,467.5,716.3c98,281.5,120.6,676.1,55.3,967.7c-178.5,801.8-907.3,1377.4-1739.3,1369.8C7675.6,5009.9,7492.1,4987.3,7391.6,4964.7z M8175.8,4648c188.5-50.3,447.4-186,598.2-314.2c160.9-140.8,329.3-402.2,412.2-640.9c75.4-226.2,90.5-550.4,37.7-779.2c-125.7-525.3-583.1-967.7-1121-1080.8c-221.2-45.2-356.9-45.2-578.1,0c-580.6,123.2-1030.5,585.6-1133.6,1168.8C6263,3735.6,6723,4451.9,7444.3,4648C7620.3,4695.7,7994.8,4695.7,8175.8,4648z"
       id="path4" /><path
       d="M7049.7,3348.5c-57.8-82.9-47.7-160.9,25.1-218.7c60.3-47.8,100.5-52.8,372-52.8H7751l276.5-276.5c236.3-236.3,286.6-276.5,356.9-276.5c85.4,0,158.3,72.9,158.3,160.9c0,27.7-135.7,186-331.8,384.6l-331.8,334.3h-394.6C7102.5,3403.8,7087.4,3401.3,7049.7,3348.5z"
       id="path6" /><path
       d="M2073.1,4183c-243.8-62.8-477.6-221.2-635.9-434.8c-276.5-374.5-279-927.5-7.5-1304.5l100.5-140.7V412.8v-1890.1l206.1-211.1l206.1-211.1h-118.1h-118.1v-1445.2V-4790h163.4h163.4v1281.9v1281.9h1445.2h1445.2v-1281.9V-4790h163.4h163.4v1445.2v1445.2H3835H2422.5l-284,284L1857-1334V558.6v1892.6l-75.4,62.8c-40.2,35.2-110.6,135.7-153.3,226.2c-155.8,316.7-93,676.1,165.9,924.9c160.9,158.4,344.4,223.7,590.7,211.1c226.2-10,374.5-72.9,525.3-226.2c148.3-150.8,213.6-299.1,223.7-515.3c15.1-291.6-2.5-321.7-462.5-786.7L2259.1,1931l113.1-110.6l113.1-110.6l437.3,434.8c515.3,512.7,530.3,542.9,530.3,970.2c0,236.3-5,261.4-90.5,442.4c-120.6,248.8-299.1,427.3-545.4,545.4c-160.9,77.9-213.6,88-414.7,95.5C2274.2,4203.1,2128.4,4195.6,2073.1,4183z"
       id="path8" /><path
       d="M2781.9,970.8c-67.9-37.7-120.6-75.4-120.6-85.5c0-7.5,253.9-454.9,563-992.8l563-975.2l987.8-12.6l987.8-12.6l477.6-1784.6c261.4-980.2,480.1-1789.6,485.1-1794.6c12.6-15.1,281.5,47.8,294.1,70.4c10,15.1-925,3551.5-1002.9,3795.3c-15.1,52.8-27.7,52.8-1028,52.8H3978.3l-517.8,897.3c-286.5,495.1-527.8,902.3-540.4,904.8C2910.1,1036.2,2847.3,1008.5,2781.9,970.8z"
       id="path10" /><path
       d="M464.5,945.7c-37.7-42.7-40.2-181-35.2-1575.9l7.5-1530.7l70.4-40.2c60.3-32.7,75.4-32.7,138.2,0l67.9,40.2l7.5,1530.7c5,1395,2.5,1533.2-35.2,1575.9c-25.1,25.1-72.9,45.2-110.6,45.2S489.6,970.8,464.5,945.7z"
       id="path12" /></g></g>
<path
   style="opacity:1;fill:#dd974e;fill-opacity:1;stroke:#000000;stroke-width:0;stroke-miterlimit:4;stroke-dasharray:none;stroke-opacity:1"
   d="m 49.290712,729.76702 -5.524274,-3.15441 0.344778,-152.42741 c 0.189628,-83.83507 0.756664,-153.51053 1.260081,-154.83435 2.399796,-6.31067 15.399342,-8.5305 21.123209,-3.60703 2.732645,2.35052 3.229861,3.88081 4.048708,12.46079 1.140932,11.95484 1.373929,207.34292 0.310788,260.62284 l -0.768567,38.51722 -5.568189,2.82162 c -6.975595,3.5348 -8.402375,3.49738 -15.226534,-0.39927 z"
   id="path829"
   inkscape:connector-curvature="0" /><path
   style="opacity:1;fill:#008080;fill-opacity:1;stroke:#000000;stroke-width:0;stroke-miterlimit:4;stroke-dasharray:none;stroke-opacity:1"
   d="m 49.019266,729.01023 -4.636575,-2.80666 0.331326,-144.10888 c 0.335112,-145.75536 0.657498,-163.50532 3.004338,-165.41344 0.715501,-0.58175 3.256966,-1.59152 5.6477,-2.24394 5.783479,-1.57829 11.897238,0.1668 14.500259,4.1389 1.883299,2.87383 2.041873,12.22158 2.383244,140.48867 0.201137,75.5755 0.01638,144.33852 -0.410572,152.80671 l -0.776275,15.39671 -4.469611,2.28023 c -5.897568,3.00871 -9.945306,2.8688 -15.573834,-0.5383 z"
   id="path831"
   inkscape:connector-curvature="0" /><path
   style="opacity:1;fill:#008080;fill-opacity:1;stroke:#000000;stroke-width:0;stroke-miterlimit:4;stroke-dasharray:none;stroke-opacity:1"
   d="M 171.30893,845.42485 V 701.69102 h 11.59144 c 6.37529,0 11.59144,-0.3968 11.59144,-0.88179 0,-0.48497 -9.12826,-9.99885 -20.28502,-21.14194 L 153.92178,659.40711 V 470.2271 281.04708 l -7.6941,-10.78471 c -9.01668,-12.63855 -15.60106,-26.14307 -19.25027,-39.48215 -2.25646,-8.24811 -2.60288,-12.24828 -2.53391,-29.25974 0.0956,-23.57349 1.92929,-31.96024 10.89799,-49.84318 10.67884,-21.29285 29.12715,-39.33115 51.5654,-50.41936 17.20405,-8.501662 23.36045,-9.5994 50.47324,-8.999815 25.3931,0.561556 29.50352,1.483855 46.94532,10.533595 24.63436,12.78162 42.32443,31.89995 53.86471,58.2136 5.94479,13.55509 7.57646,25.59219 6.50075,47.9572 -1.09312,22.72697 -2.87219,29.34002 -11.29393,41.98078 -5.9961,8.99995 -34.29963,38.906 -61.98355,65.49301 l -23.09962,22.18434 -10.73456,-10.41281 -10.73457,-10.41279 33.38336,-33.79527 c 35.37667,-35.81318 44.51925,-46.17062 49.80027,-56.41772 3.20986,-6.22831 3.27372,-6.72913 3.17562,-24.90244 -0.0829,-15.34966 -0.50672,-19.77985 -2.45918,-25.7031 -8.38789,-25.44668 -31.21274,-46.86456 -55.39789,-51.98305 -10.87475,-2.30151 -33.91252,-2.29003 -42.88832,0.0214 -27.14712,6.99079 -50.94503,32.42809 -56.93502,60.8572 -5.27086,25.01602 3.99056,55.45698 22.45049,73.79154 l 7.24465,7.19546 v 188.73587 188.73588 l 28.69733,28.68011 28.69734,28.68012 h 141.11723 141.11723 v 143.7338 143.73382 H 508.61977 492.39176 V 861.07329 732.9879 H 347.49879 202.60582 v 128.08539 128.08538 h -15.64844 -15.64845 z"
   id="path833"
   inkscape:connector-curvature="0" /><path
   style="opacity:1;fill:#008080;fill-opacity:1;stroke:#000000;stroke-width:0;stroke-miterlimit:4;stroke-dasharray:none;stroke-opacity:1"
   d="m 671.01808,972.02469 c -3.7984,-12.99394 -12.2576,-44.35861 -53.967,-200.09672 -22.00964,-82.18144 -40.32698,-149.73055 -40.70522,-150.10912 -0.37825,-0.37858 -44.69519,-1.20994 -98.4821,-1.84747 -62.09903,-0.73606 -98.20931,-1.58223 -98.93116,-2.31829 -2.71372,-2.7671 -111.41473,-192.83374 -111.41473,-194.81164 0,-1.96581 4.38979,-5.01386 14.9725,-10.39614 l 8.59721,-4.37247 2.26019,2.78548 c 1.2431,1.53201 8.78895,13.73938 16.76855,27.12749 12.83777,21.53911 24.1719,41.02474 74.50292,128.08539 l 12.39717,21.44416 98.40022,0.64181 c 71.66657,0.46745 99.27189,1.01292 101.60864,2.00772 1.76465,0.75124 3.69433,2.64389 4.28819,4.20588 4.65234,12.23658 99.72418,371.85216 99.72418,377.21336 0,1.75985 -11.07117,5.24572 -24.01405,7.56107 l -3.72904,0.66709 z"
   id="path835"
   inkscape:connector-curvature="0" /><path
   style="opacity:1;fill:#008080;fill-opacity:1;stroke:#000000;stroke-width:0;stroke-miterlimit:4;stroke-dasharray:none;stroke-opacity:1"
   d="m 829.12709,254.27454 c -3.00455,-1.90542 -16.27745,-14.08817 -29.49533,-27.07278 l -24.03251,-23.60836 -29.45006,-0.73122 c -26.59408,-0.66031 -29.93405,-0.96552 -34.44082,-3.14721 -8.8497,-4.28406 -11.89802,-12.66739 -7.56901,-20.81588 3.82818,-7.20579 4.86903,-7.38436 45.98944,-7.89025 l 37.1233,-0.45671 26.10737,26.61383 c 26.40259,26.91477 40.48199,43.00619 40.48199,46.26707 0,3.55616 -3.95143,9.99181 -7.44166,12.12015 -5.23299,3.19107 -10.8844,2.77271 -17.27271,-1.27864 z"
   id="path837"
   inkscape:connector-curvature="0" /><path
   style="opacity:1;fill:#008080;fill-opacity:1;stroke:#000000;stroke-width:0;stroke-miterlimit:4;stroke-dasharray:none;stroke-opacity:1"
   d="m 751.44151,359.73603 c -72.3991,-13.1684 -130.24867,-70.6529 -142.88924,-141.98754 -3.13122,-17.67039 -2.83789,-51.65283 0.58465,-67.73297 5.74043,-26.9703 21.70651,-58.867843 40.07237,-80.057861 18.81569,-21.709022 50.27455,-42.27803 78.85392,-51.557711 29.30505,-9.5153169 70.41296,-9.9511855 101.16354,-1.072641 56.48094,16.307619 101.29458,59.095305 119.22643,113.836403 6.19539,18.91284 7.84387,30.30456 7.74901,53.54918 -0.13333,32.672 -4.72675,53.19551 -17.771,79.40135 -21.12937,42.44881 -57.85503,74.46079 -102.38923,89.24773 -19.23518,6.38677 -27.1374,7.66522 -50.58999,8.1847 -17.79604,0.39419 -23.58195,0.0861 -34.01046,-1.81064 z m 43.86319,-29.09179 c 33.5294,-4.09267 61.66374,-17.4988 86.25243,-41.0996 22.70932,-21.79696 37.5594,-48.29551 42.50893,-75.85315 2.095,-11.66436 2.0371,-37.44396 -0.11452,-51.00233 C 917.86134,124.31248 892.55058,84.78894 861.95546,65.880381 847.66547,57.048803 828.5532,48.514764 816.486,45.577286 795.44379,40.455059 758.20418,41.407041 738.56009,47.569363 678.63711,66.36711 637.12071,122.3299 636.81918,184.71289 c -0.14986,31.0029 7.5987,56.68882 24.90706,82.5651 23.75671,35.51666 63.78541,59.03528 108.65686,63.84067 8.29655,0.8885 14.76447,0.76537 24.9216,-0.47442 z"
   id="path839"
   inkscape:connector-curvature="0" /></svg>