<?xml version="1.0" encoding="UTF-8" standalone="no"?>
<!-- Generator: Adobe Illustrator 17.0.1, SVG Export Plug-In . SVG Version: 6.00 Build 0)  -->

<svg
   xmlns:dc="http://purl.org/dc/elements/1.1/"
   xmlns:cc="http://creativecommons.org/ns#"
   xmlns:rdf="http://www.w3.org/1999/02/22-rdf-syntax-ns#"
   xmlns:svg="http://www.w3.org/2000/svg"
   xmlns="http://www.w3.org/2000/svg"
   xmlns:sodipodi="http://sodipodi.sourceforge.net/DTD/sodipodi-0.dtd"
   xmlns:inkscape="http://www.inkscape.org/namespaces/inkscape"
   version="1.1"
   x="0px"
   y="0px"
   width="86px"
   height="86px"
   viewBox="0 0 86 86"
   enable-background="new 0 0 86 86"
   xml:space="preserve"
   id="svg4935"
   inkscape:version="0.91 r13725"
   sodipodi:docname="harbour-ticket.svg"><metadata
     id="metadata4960"><rdf:RDF><cc:Work
         rdf:about=""><dc:format>image/svg+xml</dc:format><dc:type
           rdf:resource="http://purl.org/dc/dcmitype/StillImage" /><dc:title /></cc:Work></rdf:RDF></metadata><defs
     id="defs4958"><linearGradient
       y2="0.7169"
       x2="85.2831"
       y1="85.2831"
       x1="0.7169"
       gradientUnits="userSpaceOnUse"
       id="SVGID_1_"><stop
         id="stop4940"
         style="stop-color:#3f6dec;stop-opacity:1"
         offset="0" /><stop
         id="stop4942"
         style="stop-color:#1acde5;stop-opacity:1"
         offset="1" /></linearGradient></defs><sodipodi:namedview
     pagecolor="#ffffff"
     bordercolor="#666666"
     borderopacity="1"
     objecttolerance="10"
     gridtolerance="10"
     guidetolerance="10"
     inkscape:pageopacity="0"
     inkscape:pageshadow="2"
     inkscape:window-width="1229"
     inkscape:window-height="1000"
     id="namedview4956"
     showgrid="false"
     inkscape:zoom="4.4651163"
     inkscape:cx="47.288186"
     inkscape:cy="32.158582"
     inkscape:window-x="51"
     inkscape:window-y="24"
     inkscape:window-maximized="1"
     inkscape:current-layer="layer1" /><g
     id="Layer_2"
     display="none" /><path
     inkscape:connector-curvature="0"
     style="fill:url(#SVGID_1_)"
     id="path4944"
     d="M 84.277,0.3 43,0.3 C 19.417,0.3 0.3,19.418 0.3,43 l 0,41.277 c 0,0.786 0.637,1.423 1.423,1.423 L 43,85.7 C 66.583,85.7 85.7,66.582 85.7,43 l 0,-41.277 C 85.7,0.937 85.063,0.3 84.277,0.3 Z" /><g
     inkscape:groupmode="layer"
     id="layer1"
     inkscape:label="Layer 1"
     style="display:inline"><path
       inkscape:connector-curvature="0"
       style="fill:#e3dbdb;fill-opacity:1;fill-rule:nonzero;stroke:none"
       d="m 81.516356,29.080042 c 0.365441,0.721813 1.401472,4.278273 -18.867967,12.144305 l -1.525223,3.477323 2.493374,-0.190554 c 0,0 3.131051,-1.224444 3.561805,-0.272208 0.431023,0.952216 0.102102,1.336065 -2.391586,2.690677 0,0 0.780373,0.836224 0.478674,1.575746 -0.301693,0.740015 -3.309709,2.402626 -5.865324,2.95688 0,0 -1.020306,-0.459845 -0.903237,-1.275071 0,0 0.279962,1.322704 -3.022621,2.649609 L 51.250875,46.80002 c 0,0 -11.763803,5.466839 -17.374808,7.060416 -5.610789,1.593326 -8.809676,1.92712 -8.809676,1.92712 l 0.0885,1.157995 -2.590055,1.272424 -3.732439,-1.953991 -2.219433,0.259168 -0.05444,-0.712305 -11.7538514,-1.431007 4.4947212,-2.134479 7.4320822,-0.03087 -3.167134,-8.625586 3.905215,-1.641625 8.271725,6.264694 3.49342,0.0017 7.392994,-4.058092 L 4.3466656,39.00862 8.7869128,36.161347 30.39756,37.644844 c 0,0 5.19338,-2.367447 6.33018,-1.55849 1.136769,0.808958 0.67738,1.829223 0.67738,1.829223 l 9.349858,0.449972 c 0,0 2.987535,-1.930435 4.542057,-1.51165 1.555014,0.418775 0.849465,0.56202 0.849465,0.56202 0,0 14.278339,-6.555339 17.402392,-7.868804 3.124027,-1.313258 6.817661,-2.431731 8.624944,-1.29463 0,0 2.626948,-0.584447 3.342518,0.827567"
       id="path5250" /></g></svg>